<?xml version="1.0" encoding="UTF-8" standalone="no"?>
<!DOCTYPE svg PUBLIC "-//W3C//DTD SVG 1.1//EN"
 "http://www.w3.org/Graphics/SVG/1.1/DTD/svg11.dtd">
<!-- Generated by graphviz version 2.38.0 (20140413.2041)
 -->
<!-- Title: PROV Pages: 1 -->
<svg width="1152pt" height="145pt"
 viewBox="0.00 0.00 1152.00 144.95" xmlns="http://www.w3.org/2000/svg" xmlns:xlink="http://www.w3.org/1999/xlink">
<g id="graph0" class="graph" transform="scale(0.953642 0.953642) rotate(0) translate(4 148)">
<title>PROV</title>
<polygon fill="white" stroke="none" points="-4,4 -4,-148 1204,-148 1204,4 -4,4"/>
<!-- http://example.org/start -->
<g id="node1" class="node"><title>http://example.org/start</title>
<g id="a_node1"><a xlink:href="http://example.org/start" xlink:title="start">
<polygon fill="#9fb1fc" stroke="#0000ff" points="54,-90 0,-90 0,-54 54,-54 54,-90"/>
<text text-anchor="middle" x="27" y="-68.3" font-family="Times New Roman,serif" font-size="14.00">start</text>
</a>
</g>
</g>
<!-- http://example.org/backward1 -->
<g id="node2" class="node"><title>http://example.org/backward1</title>
<g id="a_node2"><a xlink:href="http://example.org/backward1" xlink:title="backward1">
<polygon fill="#9fb1fc" stroke="#0000ff" points="258,-136 180,-136 180,-100 258,-100 258,-136"/>
<text text-anchor="middle" x="219" y="-114.3" font-family="Times New Roman,serif" font-size="14.00">backward1</text>
</a>
</g>
</g>
<!-- http://example.org/s0 -->
<g id="node14" class="node"><title>http://example.org/s0</title>
<g id="a_node14"><a xlink:href="http://example.org/s0" xlink:title="s0">
<ellipse fill="#fffc87" stroke="#808080" cx="117" cy="-72" rx="27" ry="18"/>
<text text-anchor="middle" x="117" y="-68.3" font-family="Times New Roman,serif" font-size="14.00">s0</text>
</a>
</g>
</g>
<!-- http://example.org/backward1&#45;&gt;http://example.org/s0 -->
<g id="edge13" class="edge"><title>http://example.org/backward1&#45;&gt;http://example.org/s0</title>
<path fill="none" stroke="black" d="M179.909,-100.478C169.725,-95.7937 158.842,-90.7874 149.086,-86.2995"/>
<polygon fill="black" stroke="black" points="150.32,-83.0148 139.773,-82.0154 147.395,-89.3743 150.32,-83.0148"/>
<text text-anchor="middle" x="167.667" y="-107.245" font-family="Times New Roman,serif" font-size="8.00">use</text>
</g>
<!-- &#45;attrs0 -->
<g id="node3" class="node"><title>&#45;attrs0</title>
<polygon fill="none" stroke="gray" points="354,-144 294,-144 294,-108 360,-108 360,-138 354,-144"/>
<polyline fill="none" stroke="gray" points="354,-144 354,-138 "/>
<polyline fill="none" stroke="gray" points="360,-138 354,-138 "/>
<text text-anchor="start" x="304" y="-130" font-family="Times New Roman,serif" font-size="10.00">found:</text>
<text text-anchor="start" x="336" y="-130" font-family="Times New Roman,serif" font-size="10.00">119</text>
<text text-anchor="start" x="304" y="-117" font-family="Times New Roman,serif" font-size="10.00">related:</text>
<text text-anchor="start" x="336" y="-117" font-family="Times New Roman,serif" font-size="10.00">10</text>
</g>
<!-- &#45;attrs0&#45;&gt;http://example.org/backward1 -->
<g id="edge1" class="edge"><title>&#45;attrs0&#45;&gt;http://example.org/backward1</title>
<path fill="none" stroke="gray" stroke-dasharray="5,2" d="M293.909,-123.578C282.697,-122.732 269.998,-121.773 258.329,-120.893"/>
</g>
<!-- http://example.org/forward1 -->
<g id="node4" class="node"><title>http://example.org/forward1</title>
<g id="a_node4"><a xlink:href="http://example.org/forward1" xlink:title="forward1">
<polygon fill="#9fb1fc" stroke="#0000ff" points="464,-136 396,-136 396,-100 464,-100 464,-136"/>
<text text-anchor="middle" x="430" y="-114.3" font-family="Times New Roman,serif" font-size="14.00">forward1</text>
</a>
</g>
</g>
<!-- http://example.org/s1 -->
<g id="node16" class="node"><title>http://example.org/s1</title>
<g id="a_node16"><a xlink:href="http://example.org/s1" xlink:title="s1">
<ellipse fill="#fffc87" stroke="#808080" cx="327" cy="-72" rx="27" ry="18"/>
<text text-anchor="middle" x="327" y="-68.3" font-family="Times New Roman,serif" font-size="14.00">s1</text>
</a>
</g>
</g>
<!-- http://example.org/forward1&#45;&gt;http://example.org/s1 -->
<g id="edge16" class="edge"><title>http://example.org/forward1&#45;&gt;http://example.org/s1</title>
<path fill="none" stroke="black" d="M395.929,-102.938C384.063,-97.5337 370.734,-91.463 359.046,-86.1399"/>
<polygon fill="black" stroke="black" points="360.234,-82.8349 349.683,-81.8752 357.332,-89.2053 360.234,-82.8349"/>
<text text-anchor="middle" x="383.719" y="-109.751" font-family="Times New Roman,serif" font-size="8.00">use</text>
</g>
<!-- &#45;attrs1 -->
<g id="node5" class="node"><title>&#45;attrs1</title>
<polygon fill="none" stroke="gray" points="560,-144 500,-144 500,-108 566,-108 566,-138 560,-144"/>
<polyline fill="none" stroke="gray" points="560,-144 560,-138 "/>
<polyline fill="none" stroke="gray" points="566,-138 560,-138 "/>
<text text-anchor="start" x="510" y="-130" font-family="Times New Roman,serif" font-size="10.00">found:</text>
<text text-anchor="start" x="542" y="-130" font-family="Times New Roman,serif" font-size="10.00">360</text>
<text text-anchor="start" x="510" y="-117" font-family="Times New Roman,serif" font-size="10.00">related:</text>
<text text-anchor="start" x="542" y="-117" font-family="Times New Roman,serif" font-size="10.00">28</text>
</g>
<!-- &#45;attrs1&#45;&gt;http://example.org/forward1 -->
<g id="edge2" class="edge"><title>&#45;attrs1&#45;&gt;http://example.org/forward1</title>
<path fill="none" stroke="gray" stroke-dasharray="5,2" d="M499.765,-123.447C488.45,-122.55 475.721,-121.542 464.318,-120.639"/>
</g>
<!-- http://example.org/backward2 -->
<g id="node6" class="node"><title>http://example.org/backward2</title>
<g id="a_node6"><a xlink:href="http://example.org/backward2" xlink:title="backward2">
<polygon fill="#9fb1fc" stroke="#0000ff" points="680,-136 602,-136 602,-100 680,-100 680,-136"/>
<text text-anchor="middle" x="641" y="-114.3" font-family="Times New Roman,serif" font-size="14.00">backward2</text>
</a>
</g>
</g>
<!-- http://example.org/s2 -->
<g id="node18" class="node"><title>http://example.org/s2</title>
<g id="a_node18"><a xlink:href="http://example.org/s2" xlink:title="s2">
<ellipse fill="#fffc87" stroke="#808080" cx="533" cy="-72" rx="27" ry="18"/>
<text text-anchor="middle" x="533" y="-68.3" font-family="Times New Roman,serif" font-size="14.00">s2</text>
</a>
</g>
</g>
<!-- http://example.org/backward2&#45;&gt;http://example.org/s2 -->
<g id="edge19" class="edge"><title>http://example.org/backward2&#45;&gt;http://example.org/s2</title>
<path fill="none" stroke="black" d="M601.732,-101.393C589.898,-96.2577 577,-90.6605 565.665,-85.7416"/>
<polygon fill="black" stroke="black" points="566.739,-82.3924 556.173,-81.6221 563.953,-88.8138 566.739,-82.3924"/>
<text text-anchor="middle" x="589.68" y="-108.424" font-family="Times New Roman,serif" font-size="8.00">use</text>
</g>
<!-- &#45;attrs2 -->
<g id="node7" class="node"><title>&#45;attrs2</title>
<polygon fill="none" stroke="gray" points="776,-144 716,-144 716,-108 782,-108 782,-138 776,-144"/>
<polyline fill="none" stroke="gray" points="776,-144 776,-138 "/>
<polyline fill="none" stroke="gray" points="782,-138 776,-138 "/>
<text text-anchor="start" x="726" y="-130" font-family="Times New Roman,serif" font-size="10.00">found:</text>
<text text-anchor="start" x="758" y="-130" font-family="Times New Roman,serif" font-size="10.00">675</text>
<text text-anchor="start" x="726" y="-117" font-family="Times New Roman,serif" font-size="10.00">related:</text>
<text text-anchor="start" x="758" y="-117" font-family="Times New Roman,serif" font-size="10.00">3</text>
</g>
<!-- &#45;attrs2&#45;&gt;http://example.org/backward2 -->
<g id="edge3" class="edge"><title>&#45;attrs2&#45;&gt;http://example.org/backward2</title>
<path fill="none" stroke="gray" stroke-dasharray="5,2" d="M715.909,-123.578C704.697,-122.732 691.998,-121.773 680.329,-120.893"/>
</g>
<!-- http://example.org/forward2 -->
<g id="node8" class="node"><title>http://example.org/forward2</title>
<g id="a_node8"><a xlink:href="http://example.org/forward2" xlink:title="forward2">
<polygon fill="#9fb1fc" stroke="#0000ff" points="886,-136 818,-136 818,-100 886,-100 886,-136"/>
<text text-anchor="middle" x="852" y="-114.3" font-family="Times New Roman,serif" font-size="14.00">forward2</text>
</a>
</g>
</g>
<!-- http://example.org/s3 -->
<g id="node20" class="node"><title>http://example.org/s3</title>
<g id="a_node20"><a xlink:href="http://example.org/s3" xlink:title="s3">
<ellipse fill="#fffc87" stroke="#808080" cx="749" cy="-72" rx="27" ry="18"/>
<text text-anchor="middle" x="749" y="-68.3" font-family="Times New Roman,serif" font-size="14.00">s3</text>
</a>
</g>
</g>
<!-- http://example.org/forward2&#45;&gt;http://example.org/s3 -->
<g id="edge22" class="edge"><title>http://example.org/forward2&#45;&gt;http://example.org/s3</title>
<path fill="none" stroke="black" d="M817.929,-102.938C806.063,-97.5337 792.734,-91.463 781.046,-86.1399"/>
<polygon fill="black" stroke="black" points="782.234,-82.8349 771.683,-81.8752 779.332,-89.2053 782.234,-82.8349"/>
<text text-anchor="middle" x="805.719" y="-109.751" font-family="Times New Roman,serif" font-size="8.00">use</text>
</g>
<!-- &#45;attrs3 -->
<g id="node9" class="node"><title>&#45;attrs3</title>
<polygon fill="none" stroke="gray" points="982,-144 922,-144 922,-108 988,-108 988,-138 982,-144"/>
<polyline fill="none" stroke="gray" points="982,-144 982,-138 "/>
<polyline fill="none" stroke="gray" points="988,-138 982,-138 "/>
<text text-anchor="start" x="932" y="-130" font-family="Times New Roman,serif" font-size="10.00">found:</text>
<text text-anchor="start" x="964" y="-130" font-family="Times New Roman,serif" font-size="10.00">110</text>
<text text-anchor="start" x="932" y="-117" font-family="Times New Roman,serif" font-size="10.00">related:</text>
<text text-anchor="start" x="964" y="-117" font-family="Times New Roman,serif" font-size="10.00">3</text>
</g>
<!-- &#45;attrs3&#45;&gt;http://example.org/forward2 -->
<g id="edge4" class="edge"><title>&#45;attrs3&#45;&gt;http://example.org/forward2</title>
<path fill="none" stroke="gray" stroke-dasharray="5,2" d="M921.765,-123.447C910.45,-122.55 897.721,-121.542 886.318,-120.639"/>
</g>
<!-- http://example.org/backward3 -->
<g id="node10" class="node"><title>http://example.org/backward3</title>
<g id="a_node10"><a xlink:href="http://example.org/backward3" xlink:title="backward3">
<polygon fill="#9fb1fc" stroke="#0000ff" points="1102,-144 1024,-144 1024,-108 1102,-108 1102,-144"/>
<text text-anchor="middle" x="1063" y="-122.3" font-family="Times New Roman,serif" font-size="14.00">backward3</text>
</a>
</g>
</g>
<!-- http://example.org/s4 -->
<g id="node22" class="node"><title>http://example.org/s4</title>
<g id="a_node22"><a xlink:href="http://example.org/s4" xlink:title="s4">
<ellipse fill="#fffc87" stroke="#808080" cx="955" cy="-72" rx="27" ry="18"/>
<text text-anchor="middle" x="955" y="-68.3" font-family="Times New Roman,serif" font-size="14.00">s4</text>
</a>
</g>
</g>
<!-- http://example.org/backward3&#45;&gt;http://example.org/s4 -->
<g id="edge25" class="edge"><title>http://example.org/backward3&#45;&gt;http://example.org/s4</title>
<path fill="none" stroke="black" d="M1026.41,-107.869C1013.37,-101.227 998.755,-93.7809 986.232,-87.4012"/>
<polygon fill="black" stroke="black" points="987.624,-84.1822 977.124,-82.7615 984.446,-90.4195 987.624,-84.1822"/>
<text text-anchor="middle" x="1013.83" y="-114.139" font-family="Times New Roman,serif" font-size="8.00">use</text>
</g>
<!-- &#45;attrs4 -->
<g id="node11" class="node"><title>&#45;attrs4</title>
<polygon fill="none" stroke="gray" points="1194,-144 1138,-144 1138,-108 1200,-108 1200,-138 1194,-144"/>
<polyline fill="none" stroke="gray" points="1194,-144 1194,-138 "/>
<polyline fill="none" stroke="gray" points="1200,-138 1194,-138 "/>
<text text-anchor="start" x="1148" y="-130" font-family="Times New Roman,serif" font-size="10.00">found:</text>
<text text-anchor="start" x="1180" y="-130" font-family="Times New Roman,serif" font-size="10.00">68</text>
<text text-anchor="start" x="1148" y="-117" font-family="Times New Roman,serif" font-size="10.00">related:</text>
<text text-anchor="start" x="1180" y="-117" font-family="Times New Roman,serif" font-size="10.00">0</text>
</g>
<!-- &#45;attrs4&#45;&gt;http://example.org/backward3 -->
<g id="edge5" class="edge"><title>&#45;attrs4&#45;&gt;http://example.org/backward3</title>
<path fill="none" stroke="gray" stroke-dasharray="5,2" d="M1137.92,-126C1126.76,-126 1113.95,-126 1102.17,-126"/>
</g>
<!-- http://example.org/forward3 -->
<g id="node12" class="node"><title>http://example.org/forward3</title>
<g id="a_node12"><a xlink:href="http://example.org/forward3" xlink:title="forward3">
<polygon fill="#9fb1fc" stroke="#0000ff" points="1097,-90 1029,-90 1029,-54 1097,-54 1097,-90"/>
<text text-anchor="middle" x="1063" y="-68.3" font-family="Times New Roman,serif" font-size="14.00">forward3</text>
</a>
</g>
</g>
<!-- http://example.org/forward3&#45;&gt;http://example.org/s4 -->
<g id="edge26" class="edge"><title>http://example.org/forward3&#45;&gt;http://example.org/s4</title>
<path fill="none" stroke="black" d="M1028.75,-72C1017.11,-72 1003.98,-72 992.106,-72"/>
<polygon fill="black" stroke="black" points="992.071,-68.5001 982.071,-72 992.07,-75.5001 992.071,-68.5001"/>
<text text-anchor="middle" x="1021.25" y="-83.0904" font-family="Times New Roman,serif" font-size="8.00">use</text>
</g>
<!-- &#45;attrs5 -->
<g id="node13" class="node"><title>&#45;attrs5</title>
<polygon fill="none" stroke="gray" points="1191.5,-90 1140.5,-90 1140.5,-54 1197.5,-54 1197.5,-84 1191.5,-90"/>
<polyline fill="none" stroke="gray" points="1191.5,-90 1191.5,-84 "/>
<polyline fill="none" stroke="gray" points="1197.5,-84 1191.5,-84 "/>
<text text-anchor="start" x="1151" y="-76" font-family="Times New Roman,serif" font-size="10.00">found:</text>
<text text-anchor="start" x="1183" y="-76" font-family="Times New Roman,serif" font-size="10.00">4</text>
<text text-anchor="start" x="1151" y="-63" font-family="Times New Roman,serif" font-size="10.00">related:</text>
<text text-anchor="start" x="1183" y="-63" font-family="Times New Roman,serif" font-size="10.00">0</text>
</g>
<!-- &#45;attrs5&#45;&gt;http://example.org/forward3 -->
<g id="edge6" class="edge"><title>&#45;attrs5&#45;&gt;http://example.org/forward3</title>
<path fill="none" stroke="gray" stroke-dasharray="5,2" d="M1140.4,-72C1127.16,-72 1111.2,-72 1097.29,-72"/>
</g>
<!-- http://example.org/s0&#45;&gt;http://example.org/start -->
<g id="edge12" class="edge"><title>http://example.org/s0&#45;&gt;http://example.org/start</title>
<path fill="none" stroke="black" d="M89.5971,-72C81.6068,-72 72.6894,-72 64.1759,-72"/>
<polygon fill="black" stroke="black" points="64.081,-68.5001 54.081,-72 64.081,-75.5001 64.081,-68.5001"/>
<text text-anchor="middle" x="82.0971" y="-83.0904" font-family="Times New Roman,serif" font-size="8.00">gen</text>
</g>
<!-- &#45;attrs6 -->
<g id="node15" class="node"><title>&#45;attrs6</title>
<polygon fill="none" stroke="gray" points="244.5,-44 187.5,-44 187.5,-8 250.5,-8 250.5,-38 244.5,-44"/>
<polyline fill="none" stroke="gray" points="244.5,-44 244.5,-38 "/>
<polyline fill="none" stroke="gray" points="250.5,-38 244.5,-38 "/>
<text text-anchor="start" x="198" y="-30" font-family="Times New Roman,serif" font-size="10.00">type:</text>
<text text-anchor="start" x="228" y="-30" font-family="Times New Roman,serif" font-size="10.00">Set</text>
<text text-anchor="start" x="198" y="-17" font-family="Times New Roman,serif" font-size="10.00">length:</text>
<text text-anchor="start" x="228" y="-17" font-family="Times New Roman,serif" font-size="10.00">9</text>
</g>
<!-- &#45;attrs6&#45;&gt;http://example.org/s0 -->
<g id="edge7" class="edge"><title>&#45;attrs6&#45;&gt;http://example.org/s0</title>
<path fill="none" stroke="gray" stroke-dasharray="5,2" d="M187.453,-40.0515C172.06,-47.1324 153.752,-55.554 139.799,-61.9726"/>
</g>
<!-- http://example.org/s1&#45;&gt;http://example.org/backward1 -->
<g id="edge14" class="edge"><title>http://example.org/s1&#45;&gt;http://example.org/backward1</title>
<path fill="none" stroke="black" d="M304.037,-81.5312C293.399,-86.1476 280.186,-91.8817 267.41,-97.4256"/>
<polygon fill="black" stroke="black" points="266.009,-94.2185 258.229,-101.41 268.795,-100.64 266.009,-94.2185"/>
<text text-anchor="middle" x="302.328" y="-94.5336" font-family="Times New Roman,serif" font-size="8.00">gen</text>
</g>
<!-- http://example.org/s1&#45;&gt;http://example.org/s0 -->
<g id="edge15" class="edge"><title>http://example.org/s1&#45;&gt;http://example.org/s0</title>
<path fill="none" stroke="black" d="M299.657,-72C262.851,-72 195.897,-72 154.362,-72"/>
<polygon fill="black" stroke="black" points="154.129,-68.5001 144.129,-72 154.129,-75.5001 154.129,-68.5001"/>
<text text-anchor="middle" x="292.157" y="-83.0904" font-family="Times New Roman,serif" font-size="8.00">der</text>
</g>
<!-- &#45;attrs7 -->
<g id="node17" class="node"><title>&#45;attrs7</title>
<polygon fill="none" stroke="gray" points="455.5,-44 398.5,-44 398.5,-8 461.5,-8 461.5,-38 455.5,-44"/>
<polyline fill="none" stroke="gray" points="455.5,-44 455.5,-38 "/>
<polyline fill="none" stroke="gray" points="461.5,-38 455.5,-38 "/>
<text text-anchor="start" x="409" y="-30" font-family="Times New Roman,serif" font-size="10.00">type:</text>
<text text-anchor="start" x="439" y="-30" font-family="Times New Roman,serif" font-size="10.00">Set</text>
<text text-anchor="start" x="409" y="-17" font-family="Times New Roman,serif" font-size="10.00">length:</text>
<text text-anchor="start" x="439" y="-17" font-family="Times New Roman,serif" font-size="10.00">19</text>
</g>
<!-- &#45;attrs7&#45;&gt;http://example.org/s1 -->
<g id="edge8" class="edge"><title>&#45;attrs7&#45;&gt;http://example.org/s1</title>
<path fill="none" stroke="gray" stroke-dasharray="5,2" d="M398.423,-39.9263C382.746,-47.0661 364.02,-55.595 349.819,-62.0625"/>
</g>
<!-- http://example.org/s2&#45;&gt;http://example.org/forward1 -->
<g id="edge17" class="edge"><title>http://example.org/s2&#45;&gt;http://example.org/forward1</title>
<path fill="none" stroke="black" d="M510.085,-81.9813C499.359,-86.8664 486.067,-92.9198 473.462,-98.6609"/>
<polygon fill="black" stroke="black" points="471.66,-95.6357 464.01,-102.966 474.561,-102.006 471.66,-95.6357"/>
<text text-anchor="middle" x="508.643" y="-95.0119" font-family="Times New Roman,serif" font-size="8.00">gen</text>
</g>
<!-- http://example.org/s2&#45;&gt;http://example.org/s1 -->
<g id="edge18" class="edge"><title>http://example.org/s2&#45;&gt;http://example.org/s1</title>
<path fill="none" stroke="black" d="M505.748,-72C469.714,-72 404.786,-72 364.17,-72"/>
<polygon fill="black" stroke="black" points="364.151,-68.5001 354.151,-72 364.151,-75.5001 364.151,-68.5001"/>
<text text-anchor="middle" x="498.248" y="-83.0904" font-family="Times New Roman,serif" font-size="8.00">der</text>
</g>
<!-- &#45;attrs8 -->
<g id="node19" class="node"><title>&#45;attrs8</title>
<polygon fill="none" stroke="gray" points="666.5,-44 609.5,-44 609.5,-8 672.5,-8 672.5,-38 666.5,-44"/>
<polyline fill="none" stroke="gray" points="666.5,-44 666.5,-38 "/>
<polyline fill="none" stroke="gray" points="672.5,-38 666.5,-38 "/>
<text text-anchor="start" x="620" y="-30" font-family="Times New Roman,serif" font-size="10.00">type:</text>
<text text-anchor="start" x="650" y="-30" font-family="Times New Roman,serif" font-size="10.00">Set</text>
<text text-anchor="start" x="620" y="-17" font-family="Times New Roman,serif" font-size="10.00">length:</text>
<text text-anchor="start" x="650" y="-17" font-family="Times New Roman,serif" font-size="10.00">47</text>
</g>
<!-- &#45;attrs8&#45;&gt;http://example.org/s2 -->
<g id="edge9" class="edge"><title>&#45;attrs8&#45;&gt;http://example.org/s2</title>
<path fill="none" stroke="gray" stroke-dasharray="5,2" d="M609.34,-39.3051C592.342,-46.6816 571.592,-55.6867 556.175,-62.377"/>
</g>
<!-- http://example.org/s3&#45;&gt;http://example.org/backward2 -->
<g id="edge20" class="edge"><title>http://example.org/s3&#45;&gt;http://example.org/backward2</title>
<path fill="none" stroke="black" d="M726.037,-81.5312C715.399,-86.1476 702.186,-91.8817 689.41,-97.4256"/>
<polygon fill="black" stroke="black" points="688.009,-94.2185 680.229,-101.41 690.795,-100.64 688.009,-94.2185"/>
<text text-anchor="middle" x="724.328" y="-94.5336" font-family="Times New Roman,serif" font-size="8.00">gen</text>
</g>
<!-- http://example.org/s3&#45;&gt;http://example.org/s2 -->
<g id="edge21" class="edge"><title>http://example.org/s3&#45;&gt;http://example.org/s2</title>
<path fill="none" stroke="black" d="M721.759,-72C683.712,-72 613.096,-72 570.146,-72"/>
<polygon fill="black" stroke="black" points="570.12,-68.5001 560.12,-72 570.12,-75.5001 570.12,-68.5001"/>
<text text-anchor="middle" x="714.259" y="-83.0904" font-family="Times New Roman,serif" font-size="8.00">der</text>
</g>
<!-- &#45;attrs9 -->
<g id="node21" class="node"><title>&#45;attrs9</title>
<polygon fill="none" stroke="gray" points="877.5,-44 820.5,-44 820.5,-8 883.5,-8 883.5,-38 877.5,-44"/>
<polyline fill="none" stroke="gray" points="877.5,-44 877.5,-38 "/>
<polyline fill="none" stroke="gray" points="883.5,-38 877.5,-38 "/>
<text text-anchor="start" x="831" y="-30" font-family="Times New Roman,serif" font-size="10.00">type:</text>
<text text-anchor="start" x="861" y="-30" font-family="Times New Roman,serif" font-size="10.00">Set</text>
<text text-anchor="start" x="831" y="-17" font-family="Times New Roman,serif" font-size="10.00">length:</text>
<text text-anchor="start" x="861" y="-17" font-family="Times New Roman,serif" font-size="10.00">50</text>
</g>
<!-- &#45;attrs9&#45;&gt;http://example.org/s3 -->
<g id="edge10" class="edge"><title>&#45;attrs9&#45;&gt;http://example.org/s3</title>
<path fill="none" stroke="gray" stroke-dasharray="5,2" d="M820.423,-39.9263C804.746,-47.0661 786.02,-55.595 771.819,-62.0625"/>
</g>
<!-- http://example.org/s4&#45;&gt;http://example.org/forward2 -->
<g id="edge23" class="edge"><title>http://example.org/s4&#45;&gt;http://example.org/forward2</title>
<path fill="none" stroke="black" d="M932.085,-81.9813C921.359,-86.8664 908.067,-92.9198 895.462,-98.6609"/>
<polygon fill="black" stroke="black" points="893.66,-95.6357 886.01,-102.966 896.561,-102.006 893.66,-95.6357"/>
<text text-anchor="middle" x="930.643" y="-95.0119" font-family="Times New Roman,serif" font-size="8.00">gen</text>
</g>
<!-- http://example.org/s4&#45;&gt;http://example.org/s3 -->
<g id="edge24" class="edge"><title>http://example.org/s4&#45;&gt;http://example.org/s3</title>
<path fill="none" stroke="black" d="M927.748,-72C891.714,-72 826.786,-72 786.17,-72"/>
<polygon fill="black" stroke="black" points="786.151,-68.5001 776.151,-72 786.151,-75.5001 786.151,-68.5001"/>
<text text-anchor="middle" x="920.248" y="-83.0904" font-family="Times New Roman,serif" font-size="8.00">der</text>
</g>
<!-- &#45;attrs10 -->
<g id="node23" class="node"><title>&#45;attrs10</title>
<polygon fill="none" stroke="gray" points="1088.5,-36 1031.5,-36 1031.5,-0 1094.5,-0 1094.5,-30 1088.5,-36"/>
<polyline fill="none" stroke="gray" points="1088.5,-36 1088.5,-30 "/>
<polyline fill="none" stroke="gray" points="1094.5,-30 1088.5,-30 "/>
<text text-anchor="start" x="1042" y="-22" font-family="Times New Roman,serif" font-size="10.00">type:</text>
<text text-anchor="start" x="1072" y="-22" font-family="Times New Roman,serif" font-size="10.00">Set</text>
<text text-anchor="start" x="1042" y="-9" font-family="Times New Roman,serif" font-size="10.00">length:</text>
<text text-anchor="start" x="1072" y="-9" font-family="Times New Roman,serif" font-size="10.00">53</text>
</g>
<!-- &#45;attrs10&#45;&gt;http://example.org/s4 -->
<g id="edge11" class="edge"><title>&#45;attrs10&#45;&gt;http://example.org/s4</title>
<path fill="none" stroke="gray" stroke-dasharray="5,2" d="M1031.34,-33.619C1013.85,-42.5276 992.394,-53.4596 976.857,-61.3746"/>
</g>
</g>
</svg>
