<?xml version="1.0" encoding="UTF-8" standalone="no"?>
<!DOCTYPE svg PUBLIC "-//W3C//DTD SVG 1.1//EN"
 "http://www.w3.org/Graphics/SVG/1.1/DTD/svg11.dtd">
<!-- Generated by graphviz version 2.38.0 (20140413.2041)
 -->
<!-- Title: PROV Pages: 1 -->
<svg width="1152pt" height="146pt"
 viewBox="0.00 0.00 1152.00 146.09" xmlns="http://www.w3.org/2000/svg" xmlns:xlink="http://www.w3.org/1999/xlink">
<g id="graph0" class="graph" transform="scale(0.758893 0.758893) rotate(0) translate(4 188.5)">
<title>PROV</title>
<polygon fill="white" stroke="none" points="-4,4 -4,-188.5 1514,-188.5 1514,4 -4,4"/>
<!-- http://example.org/forward6 -->
<g id="node1" class="node"><title>http://example.org/forward6</title>
<g id="a_node1"><a xlink:href="http://example.org/forward6" xlink:title="forward6">
<polygon fill="#9fb1fc" stroke="#0000ff" points="1308.5,-36 1240.5,-36 1240.5,-0 1308.5,-0 1308.5,-36"/>
<text text-anchor="middle" x="1274.5" y="-14.3" font-family="Times New Roman,serif" font-size="14.00">forward6</text>
</a>
</g>
</g>
<!-- http://example.org/s5 -->
<g id="node16" class="node"><title>http://example.org/s5</title>
<g id="a_node16"><a xlink:href="http://example.org/s5" xlink:title="s5">
<ellipse fill="#fffc87" stroke="#808080" cx="1172" cy="-79" rx="27" ry="18"/>
<text text-anchor="middle" x="1172" y="-75.3" font-family="Times New Roman,serif" font-size="14.00">s5</text>
</a>
</g>
</g>
<!-- http://example.org/forward6&#45;&gt;http://example.org/s5 -->
<g id="edge14" class="edge"><title>http://example.org/forward6&#45;&gt;http://example.org/s5</title>
<path fill="none" stroke="black" d="M1243.62,-36.1369C1230.17,-44.2977 1214.39,-53.8801 1201.15,-61.9126"/>
<polygon fill="black" stroke="black" points="1199.19,-59.0087 1192.46,-67.1894 1202.82,-64.9927 1199.19,-59.0087"/>
<text text-anchor="middle" x="1243.95" y="-49.2332" font-family="Times New Roman,serif" font-size="8.00">use</text>
</g>
<!-- &#45;attrs7 -->
<g id="node17" class="node"><title>&#45;attrs7</title>
<polygon fill="none" stroke="gray" points="1304,-103.5 1239,-103.5 1239,-54.5 1310,-54.5 1310,-97.5 1304,-103.5"/>
<polyline fill="none" stroke="gray" points="1304,-103.5 1304,-97.5 "/>
<polyline fill="none" stroke="gray" points="1310,-97.5 1304,-97.5 "/>
<text text-anchor="start" x="1249.5" y="-89" font-family="Times New Roman,serif" font-size="10.00">type:</text>
<text text-anchor="start" x="1281.5" y="-89" font-family="Times New Roman,serif" font-size="10.00">Set</text>
<text text-anchor="start" x="1249.5" y="-76" font-family="Times New Roman,serif" font-size="10.00">visited:</text>
<text text-anchor="start" x="1281.5" y="-76" font-family="Times New Roman,serif" font-size="10.00">1341</text>
<text text-anchor="start" x="1249.5" y="-63" font-family="Times New Roman,serif" font-size="10.00">related:</text>
<text text-anchor="start" x="1281.5" y="-63" font-family="Times New Roman,serif" font-size="10.00">53</text>
</g>
<!-- http://example.org/forward6&#45;&gt;&#45;attrs7 -->
<!-- &#45;attrs0 -->
<g id="node2" class="node"><title>&#45;attrs0</title>
<polygon fill="none" stroke="gray" points="1397,-36 1346,-36 1346,-0 1403,-0 1403,-30 1397,-36"/>
<polyline fill="none" stroke="gray" points="1397,-36 1397,-30 "/>
<polyline fill="none" stroke="gray" points="1403,-30 1397,-30 "/>
<text text-anchor="start" x="1356.5" y="-22" font-family="Times New Roman,serif" font-size="10.00">found:</text>
<text text-anchor="start" x="1388.5" y="-22" font-family="Times New Roman,serif" font-size="10.00">4</text>
<text text-anchor="start" x="1356.5" y="-9" font-family="Times New Roman,serif" font-size="10.00">related:</text>
<text text-anchor="start" x="1388.5" y="-9" font-family="Times New Roman,serif" font-size="10.00">0</text>
</g>
<!-- &#45;attrs0&#45;&gt;http://example.org/forward6 -->
<g id="edge1" class="edge"><title>&#45;attrs0&#45;&gt;http://example.org/forward6</title>
<path fill="none" stroke="gray" stroke-dasharray="5,2" d="M1345.94,-18C1334.39,-18 1320.86,-18 1308.77,-18"/>
</g>
<!-- http://example.org/backward5 -->
<g id="node3" class="node"><title>http://example.org/backward5</title>
<g id="a_node3"><a xlink:href="http://example.org/backward5" xlink:title="backward5">
<polygon fill="#9fb1fc" stroke="#0000ff" points="1105,-43 1027,-43 1027,-7 1105,-7 1105,-43"/>
<text text-anchor="middle" x="1066" y="-21.3" font-family="Times New Roman,serif" font-size="14.00">backward5</text>
</a>
</g>
</g>
<!-- http://example.org/s4 -->
<g id="node18" class="node"><title>http://example.org/s4</title>
<g id="a_node18"><a xlink:href="http://example.org/s4" xlink:title="s4">
<ellipse fill="#fffc87" stroke="#808080" cx="958" cy="-86" rx="27" ry="18"/>
<text text-anchor="middle" x="958" y="-82.3" font-family="Times New Roman,serif" font-size="14.00">s4</text>
</a>
</g>
</g>
<!-- http://example.org/backward5&#45;&gt;http://example.org/s4 -->
<g id="edge17" class="edge"><title>http://example.org/backward5&#45;&gt;http://example.org/s4</title>
<path fill="none" stroke="black" d="M1033.48,-43.1369C1018.97,-51.4914 1001.86,-61.3358 987.704,-69.4819"/>
<polygon fill="black" stroke="black" points="985.806,-66.5357 978.884,-74.5571 989.297,-72.6029 985.806,-66.5357"/>
<text text-anchor="middle" x="1033.46" y="-56.2368" font-family="Times New Roman,serif" font-size="8.00">use</text>
</g>
<!-- &#45;attrs8 -->
<g id="node19" class="node"><title>&#45;attrs8</title>
<polygon fill="none" stroke="gray" points="1095.5,-110.5 1030.5,-110.5 1030.5,-61.5 1101.5,-61.5 1101.5,-104.5 1095.5,-110.5"/>
<polyline fill="none" stroke="gray" points="1095.5,-110.5 1095.5,-104.5 "/>
<polyline fill="none" stroke="gray" points="1101.5,-104.5 1095.5,-104.5 "/>
<text text-anchor="start" x="1041" y="-96" font-family="Times New Roman,serif" font-size="10.00">type:</text>
<text text-anchor="start" x="1073" y="-96" font-family="Times New Roman,serif" font-size="10.00">Set</text>
<text text-anchor="start" x="1041" y="-83" font-family="Times New Roman,serif" font-size="10.00">visited:</text>
<text text-anchor="start" x="1073" y="-83" font-family="Times New Roman,serif" font-size="10.00">1273</text>
<text text-anchor="start" x="1041" y="-70" font-family="Times New Roman,serif" font-size="10.00">related:</text>
<text text-anchor="start" x="1073" y="-70" font-family="Times New Roman,serif" font-size="10.00">53</text>
</g>
<!-- http://example.org/backward5&#45;&gt;&#45;attrs8 -->
<!-- &#45;attrs1 -->
<g id="node4" class="node"><title>&#45;attrs1</title>
<polygon fill="none" stroke="gray" points="1197,-43 1141,-43 1141,-7 1203,-7 1203,-37 1197,-43"/>
<polyline fill="none" stroke="gray" points="1197,-43 1197,-37 "/>
<polyline fill="none" stroke="gray" points="1203,-37 1197,-37 "/>
<text text-anchor="start" x="1151" y="-29" font-family="Times New Roman,serif" font-size="10.00">found:</text>
<text text-anchor="start" x="1183" y="-29" font-family="Times New Roman,serif" font-size="10.00">68</text>
<text text-anchor="start" x="1151" y="-16" font-family="Times New Roman,serif" font-size="10.00">related:</text>
<text text-anchor="start" x="1183" y="-16" font-family="Times New Roman,serif" font-size="10.00">0</text>
</g>
<!-- &#45;attrs1&#45;&gt;http://example.org/backward5 -->
<g id="edge2" class="edge"><title>&#45;attrs1&#45;&gt;http://example.org/backward5</title>
<path fill="none" stroke="gray" stroke-dasharray="5,2" d="M1140.92,-25C1129.76,-25 1116.95,-25 1105.17,-25"/>
</g>
<!-- http://example.org/forward4 -->
<g id="node5" class="node"><title>http://example.org/forward4</title>
<g id="a_node5"><a xlink:href="http://example.org/forward4" xlink:title="forward4">
<polygon fill="#9fb1fc" stroke="#0000ff" points="887.5,-50 819.5,-50 819.5,-14 887.5,-14 887.5,-50"/>
<text text-anchor="middle" x="853.5" y="-28.3" font-family="Times New Roman,serif" font-size="14.00">forward4</text>
</a>
</g>
</g>
<!-- http://example.org/s3 -->
<g id="node20" class="node"><title>http://example.org/s3</title>
<g id="a_node20"><a xlink:href="http://example.org/s3" xlink:title="s3">
<ellipse fill="#fffc87" stroke="#808080" cx="749" cy="-93" rx="27" ry="18"/>
<text text-anchor="middle" x="749" y="-89.3" font-family="Times New Roman,serif" font-size="14.00">s3</text>
</a>
</g>
</g>
<!-- http://example.org/forward4&#45;&gt;http://example.org/s3 -->
<g id="edge20" class="edge"><title>http://example.org/forward4&#45;&gt;http://example.org/s3</title>
<path fill="none" stroke="black" d="M822.024,-50.1369C808.311,-58.2977 792.21,-67.8801 778.712,-75.9126"/>
<polygon fill="black" stroke="black" points="776.649,-73.0676 769.846,-81.1894 780.229,-79.083 776.649,-73.0676"/>
<text text-anchor="middle" x="822.223" y="-63.2355" font-family="Times New Roman,serif" font-size="8.00">use</text>
</g>
<!-- &#45;attrs9 -->
<g id="node21" class="node"><title>&#45;attrs9</title>
<polygon fill="none" stroke="gray" points="883,-117.5 818,-117.5 818,-68.5 889,-68.5 889,-111.5 883,-117.5"/>
<polyline fill="none" stroke="gray" points="883,-117.5 883,-111.5 "/>
<polyline fill="none" stroke="gray" points="889,-111.5 883,-111.5 "/>
<text text-anchor="start" x="828.5" y="-103" font-family="Times New Roman,serif" font-size="10.00">type:</text>
<text text-anchor="start" x="860.5" y="-103" font-family="Times New Roman,serif" font-size="10.00">Set</text>
<text text-anchor="start" x="828.5" y="-90" font-family="Times New Roman,serif" font-size="10.00">visited:</text>
<text text-anchor="start" x="860.5" y="-90" font-family="Times New Roman,serif" font-size="10.00">1163</text>
<text text-anchor="start" x="828.5" y="-77" font-family="Times New Roman,serif" font-size="10.00">related:</text>
<text text-anchor="start" x="860.5" y="-77" font-family="Times New Roman,serif" font-size="10.00">50</text>
</g>
<!-- http://example.org/forward4&#45;&gt;&#45;attrs9 -->
<!-- &#45;attrs2 -->
<g id="node6" class="node"><title>&#45;attrs2</title>
<polygon fill="none" stroke="gray" points="985,-50 925,-50 925,-14 991,-14 991,-44 985,-50"/>
<polyline fill="none" stroke="gray" points="985,-50 985,-44 "/>
<polyline fill="none" stroke="gray" points="991,-44 985,-44 "/>
<text text-anchor="start" x="935" y="-36" font-family="Times New Roman,serif" font-size="10.00">found:</text>
<text text-anchor="start" x="967" y="-36" font-family="Times New Roman,serif" font-size="10.00">110</text>
<text text-anchor="start" x="935" y="-23" font-family="Times New Roman,serif" font-size="10.00">related:</text>
<text text-anchor="start" x="967" y="-23" font-family="Times New Roman,serif" font-size="10.00">3</text>
</g>
<!-- &#45;attrs2&#45;&gt;http://example.org/forward4 -->
<g id="edge3" class="edge"><title>&#45;attrs2&#45;&gt;http://example.org/forward4</title>
<path fill="none" stroke="gray" stroke-dasharray="5,2" d="M924.85,-32C912.99,-32 899.538,-32 887.596,-32"/>
</g>
<!-- http://example.org/backward3 -->
<g id="node7" class="node"><title>http://example.org/backward3</title>
<g id="a_node7"><a xlink:href="http://example.org/backward3" xlink:title="backward3">
<polygon fill="#9fb1fc" stroke="#0000ff" points="680,-57 602,-57 602,-21 680,-21 680,-57"/>
<text text-anchor="middle" x="641" y="-35.3" font-family="Times New Roman,serif" font-size="14.00">backward3</text>
</a>
</g>
</g>
<!-- http://example.org/s2 -->
<g id="node22" class="node"><title>http://example.org/s2</title>
<g id="a_node22"><a xlink:href="http://example.org/s2" xlink:title="s2">
<ellipse fill="#fffc87" stroke="#808080" cx="533" cy="-100" rx="27" ry="18"/>
<text text-anchor="middle" x="533" y="-96.3" font-family="Times New Roman,serif" font-size="14.00">s2</text>
</a>
</g>
</g>
<!-- http://example.org/backward3&#45;&gt;http://example.org/s2 -->
<g id="edge23" class="edge"><title>http://example.org/backward3&#45;&gt;http://example.org/s2</title>
<path fill="none" stroke="black" d="M608.483,-57.1369C593.966,-65.4914 576.859,-75.3358 562.704,-83.4819"/>
<polygon fill="black" stroke="black" points="560.806,-80.5357 553.884,-88.5571 564.297,-86.6029 560.806,-80.5357"/>
<text text-anchor="middle" x="608.462" y="-70.2368" font-family="Times New Roman,serif" font-size="8.00">use</text>
</g>
<!-- &#45;attrs10 -->
<g id="node23" class="node"><title>&#45;attrs10</title>
<polygon fill="none" stroke="gray" points="668,-124.5 608,-124.5 608,-75.5 674,-75.5 674,-118.5 668,-124.5"/>
<polyline fill="none" stroke="gray" points="668,-124.5 668,-118.5 "/>
<polyline fill="none" stroke="gray" points="674,-118.5 668,-118.5 "/>
<text text-anchor="start" x="618" y="-110" font-family="Times New Roman,serif" font-size="10.00">type:</text>
<text text-anchor="start" x="650" y="-110" font-family="Times New Roman,serif" font-size="10.00">Set</text>
<text text-anchor="start" x="618" y="-97" font-family="Times New Roman,serif" font-size="10.00">visited:</text>
<text text-anchor="start" x="650" y="-97" font-family="Times New Roman,serif" font-size="10.00">488</text>
<text text-anchor="start" x="618" y="-84" font-family="Times New Roman,serif" font-size="10.00">related:</text>
<text text-anchor="start" x="650" y="-84" font-family="Times New Roman,serif" font-size="10.00">47</text>
</g>
<!-- http://example.org/backward3&#45;&gt;&#45;attrs10 -->
<!-- &#45;attrs3 -->
<g id="node8" class="node"><title>&#45;attrs3</title>
<polygon fill="none" stroke="gray" points="776,-57 716,-57 716,-21 782,-21 782,-51 776,-57"/>
<polyline fill="none" stroke="gray" points="776,-57 776,-51 "/>
<polyline fill="none" stroke="gray" points="782,-51 776,-51 "/>
<text text-anchor="start" x="726" y="-43" font-family="Times New Roman,serif" font-size="10.00">found:</text>
<text text-anchor="start" x="758" y="-43" font-family="Times New Roman,serif" font-size="10.00">675</text>
<text text-anchor="start" x="726" y="-30" font-family="Times New Roman,serif" font-size="10.00">related:</text>
<text text-anchor="start" x="758" y="-30" font-family="Times New Roman,serif" font-size="10.00">3</text>
</g>
<!-- &#45;attrs3&#45;&gt;http://example.org/backward3 -->
<g id="edge4" class="edge"><title>&#45;attrs3&#45;&gt;http://example.org/backward3</title>
<path fill="none" stroke="gray" stroke-dasharray="5,2" d="M715.909,-39C704.697,-39 691.998,-39 680.329,-39"/>
</g>
<!-- http://example.org/forward2 -->
<g id="node9" class="node"><title>http://example.org/forward2</title>
<g id="a_node9"><a xlink:href="http://example.org/forward2" xlink:title="forward2">
<polygon fill="#9fb1fc" stroke="#0000ff" points="464,-64 396,-64 396,-28 464,-28 464,-64"/>
<text text-anchor="middle" x="430" y="-42.3" font-family="Times New Roman,serif" font-size="14.00">forward2</text>
</a>
</g>
</g>
<!-- http://example.org/s1 -->
<g id="node24" class="node"><title>http://example.org/s1</title>
<g id="a_node24"><a xlink:href="http://example.org/s1" xlink:title="s1">
<ellipse fill="#fffc87" stroke="#808080" cx="327" cy="-107" rx="27" ry="18"/>
<text text-anchor="middle" x="327" y="-103.3" font-family="Times New Roman,serif" font-size="14.00">s1</text>
</a>
</g>
</g>
<!-- http://example.org/forward2&#45;&gt;http://example.org/s1 -->
<g id="edge26" class="edge"><title>http://example.org/forward2&#45;&gt;http://example.org/s1</title>
<path fill="none" stroke="black" d="M398.97,-64.1369C385.458,-72.2977 369.592,-81.8801 356.292,-89.9126"/>
<polygon fill="black" stroke="black" points="354.306,-87.0235 347.555,-95.1894 357.925,-93.0155 354.306,-87.0235"/>
<text text-anchor="middle" x="399.266" y="-77.2339" font-family="Times New Roman,serif" font-size="8.00">use</text>
</g>
<!-- &#45;attrs11 -->
<g id="node25" class="node"><title>&#45;attrs11</title>
<polygon fill="none" stroke="gray" points="457,-131.5 397,-131.5 397,-82.5 463,-82.5 463,-125.5 457,-131.5"/>
<polyline fill="none" stroke="gray" points="457,-131.5 457,-125.5 "/>
<polyline fill="none" stroke="gray" points="463,-125.5 457,-125.5 "/>
<text text-anchor="start" x="407" y="-117" font-family="Times New Roman,serif" font-size="10.00">type:</text>
<text text-anchor="start" x="439" y="-117" font-family="Times New Roman,serif" font-size="10.00">Set</text>
<text text-anchor="start" x="407" y="-104" font-family="Times New Roman,serif" font-size="10.00">visited:</text>
<text text-anchor="start" x="439" y="-104" font-family="Times New Roman,serif" font-size="10.00">128</text>
<text text-anchor="start" x="407" y="-91" font-family="Times New Roman,serif" font-size="10.00">related:</text>
<text text-anchor="start" x="439" y="-91" font-family="Times New Roman,serif" font-size="10.00">19</text>
</g>
<!-- http://example.org/forward2&#45;&gt;&#45;attrs11 -->
<!-- &#45;attrs4 -->
<g id="node10" class="node"><title>&#45;attrs4</title>
<polygon fill="none" stroke="gray" points="560,-64 500,-64 500,-28 566,-28 566,-58 560,-64"/>
<polyline fill="none" stroke="gray" points="560,-64 560,-58 "/>
<polyline fill="none" stroke="gray" points="566,-58 560,-58 "/>
<text text-anchor="start" x="510" y="-50" font-family="Times New Roman,serif" font-size="10.00">found:</text>
<text text-anchor="start" x="542" y="-50" font-family="Times New Roman,serif" font-size="10.00">360</text>
<text text-anchor="start" x="510" y="-37" font-family="Times New Roman,serif" font-size="10.00">related:</text>
<text text-anchor="start" x="542" y="-37" font-family="Times New Roman,serif" font-size="10.00">28</text>
</g>
<!-- &#45;attrs4&#45;&gt;http://example.org/forward2 -->
<g id="edge5" class="edge"><title>&#45;attrs4&#45;&gt;http://example.org/forward2</title>
<path fill="none" stroke="gray" stroke-dasharray="5,2" d="M499.765,-46C488.45,-46 475.721,-46 464.318,-46"/>
</g>
<!-- http://example.org/backward1 -->
<g id="node11" class="node"><title>http://example.org/backward1</title>
<g id="a_node11"><a xlink:href="http://example.org/backward1" xlink:title="backward1">
<polygon fill="#9fb1fc" stroke="#0000ff" points="258,-79 180,-79 180,-43 258,-43 258,-79"/>
<text text-anchor="middle" x="219" y="-57.3" font-family="Times New Roman,serif" font-size="14.00">backward1</text>
</a>
</g>
</g>
<!-- http://example.org/s0 -->
<g id="node26" class="node"><title>http://example.org/s0</title>
<g id="a_node26"><a xlink:href="http://example.org/s0" xlink:title="s0">
<ellipse fill="#fffc87" stroke="#808080" cx="117" cy="-109" rx="27" ry="18"/>
<text text-anchor="middle" x="117" y="-105.3" font-family="Times New Roman,serif" font-size="14.00">s0</text>
</a>
</g>
</g>
<!-- http://example.org/backward1&#45;&gt;http://example.org/s0 -->
<g id="edge29" class="edge"><title>http://example.org/backward1&#45;&gt;http://example.org/s0</title>
<path fill="none" stroke="black" d="M180.479,-79.01C169.98,-84.0498 158.696,-89.4661 148.645,-94.2902"/>
<polygon fill="black" stroke="black" points="146.954,-91.2196 139.453,-98.7023 149.983,-97.5303 146.954,-91.2196"/>
<text text-anchor="middle" x="179.339" y="-92.0666" font-family="Times New Roman,serif" font-size="8.00">use</text>
</g>
<!-- &#45;attrs12 -->
<g id="node27" class="node"><title>&#45;attrs12</title>
<polygon fill="none" stroke="gray" points="245.5,-184.5 186.5,-184.5 186.5,-135.5 251.5,-135.5 251.5,-178.5 245.5,-184.5"/>
<polyline fill="none" stroke="gray" points="245.5,-184.5 245.5,-178.5 "/>
<polyline fill="none" stroke="gray" points="251.5,-178.5 245.5,-178.5 "/>
<text text-anchor="start" x="197" y="-170" font-family="Times New Roman,serif" font-size="10.00">type:</text>
<text text-anchor="start" x="229" y="-170" font-family="Times New Roman,serif" font-size="10.00">Set</text>
<text text-anchor="start" x="197" y="-157" font-family="Times New Roman,serif" font-size="10.00">visited:</text>
<text text-anchor="start" x="229" y="-157" font-family="Times New Roman,serif" font-size="10.00">9</text>
<text text-anchor="start" x="197" y="-144" font-family="Times New Roman,serif" font-size="10.00">related:</text>
<text text-anchor="start" x="229" y="-144" font-family="Times New Roman,serif" font-size="10.00">9</text>
</g>
<!-- http://example.org/backward1&#45;&gt;&#45;attrs12 -->
<!-- &#45;attrs5 -->
<g id="node12" class="node"><title>&#45;attrs5</title>
<polygon fill="none" stroke="gray" points="354,-71 294,-71 294,-35 360,-35 360,-65 354,-71"/>
<polyline fill="none" stroke="gray" points="354,-71 354,-65 "/>
<polyline fill="none" stroke="gray" points="360,-65 354,-65 "/>
<text text-anchor="start" x="304" y="-57" font-family="Times New Roman,serif" font-size="10.00">found:</text>
<text text-anchor="start" x="336" y="-57" font-family="Times New Roman,serif" font-size="10.00">119</text>
<text text-anchor="start" x="304" y="-44" font-family="Times New Roman,serif" font-size="10.00">related:</text>
<text text-anchor="start" x="336" y="-44" font-family="Times New Roman,serif" font-size="10.00">10</text>
</g>
<!-- &#45;attrs5&#45;&gt;http://example.org/backward1 -->
<g id="edge6" class="edge"><title>&#45;attrs5&#45;&gt;http://example.org/backward1</title>
<path fill="none" stroke="gray" stroke-dasharray="5,2" d="M293.909,-55.422C282.697,-56.2682 269.998,-57.2266 258.329,-58.1072"/>
</g>
<!-- http://example.org/start -->
<g id="node13" class="node"><title>http://example.org/start</title>
<g id="a_node13"><a xlink:href="http://example.org/start" xlink:title="start">
<polygon fill="#9fb1fc" stroke="#0000ff" points="54,-151 0,-151 0,-115 54,-115 54,-151"/>
<text text-anchor="middle" x="27" y="-129.3" font-family="Times New Roman,serif" font-size="14.00">start</text>
</a>
</g>
</g>
<!-- http://example.org/s6 -->
<g id="node14" class="node"><title>http://example.org/s6</title>
<g id="a_node14"><a xlink:href="http://example.org/s6" xlink:title="s6">
<ellipse fill="#fffc87" stroke="#808080" cx="1374.5" cy="-72" rx="27" ry="18"/>
<text text-anchor="middle" x="1374.5" y="-68.3" font-family="Times New Roman,serif" font-size="14.00">s6</text>
</a>
</g>
</g>
<!-- http://example.org/s6&#45;&gt;http://example.org/forward6 -->
<g id="edge15" class="edge"><title>http://example.org/s6&#45;&gt;http://example.org/forward6</title>
<path fill="none" stroke="black" d="M1353.19,-60.8112C1342.82,-55.0936 1329.79,-47.9156 1317.39,-41.0801"/>
<polygon fill="black" stroke="black" points="1318.96,-37.9497 1308.51,-36.189 1315.58,-44.0806 1318.96,-37.9497"/>
<text text-anchor="middle" x="1340.36" y="-66.6691" font-family="Times New Roman,serif" font-size="8.00">gen</text>
</g>
<!-- http://example.org/s6&#45;&gt;&#45;attrs0 -->
<!-- http://example.org/s6&#45;&gt;http://example.org/s5 -->
<g id="edge16" class="edge"><title>http://example.org/s6&#45;&gt;http://example.org/s5</title>
<path fill="none" stroke="black" d="M1357.26,-85.8786C1345.12,-95.2874 1327.65,-106.904 1310,-112 1279.68,-120.753 1269.71,-119.25 1239,-112 1225.75,-108.873 1212.13,-102.657 1200.73,-96.4548"/>
<polygon fill="black" stroke="black" points="1202.15,-93.2359 1191.73,-91.3165 1198.68,-99.3147 1202.15,-93.2359"/>
<text text-anchor="middle" x="1359.13" y="-98.8606" font-family="Times New Roman,serif" font-size="8.00">der</text>
</g>
<!-- &#45;attrs6 -->
<g id="node15" class="node"><title>&#45;attrs6</title>
<polygon fill="none" stroke="gray" points="1504,-96.5 1439,-96.5 1439,-47.5 1510,-47.5 1510,-90.5 1504,-96.5"/>
<polyline fill="none" stroke="gray" points="1504,-96.5 1504,-90.5 "/>
<polyline fill="none" stroke="gray" points="1510,-90.5 1504,-90.5 "/>
<text text-anchor="start" x="1449.5" y="-82" font-family="Times New Roman,serif" font-size="10.00">type:</text>
<text text-anchor="start" x="1481.5" y="-82" font-family="Times New Roman,serif" font-size="10.00">Set</text>
<text text-anchor="start" x="1449.5" y="-69" font-family="Times New Roman,serif" font-size="10.00">visited:</text>
<text text-anchor="start" x="1481.5" y="-69" font-family="Times New Roman,serif" font-size="10.00">1345</text>
<text text-anchor="start" x="1449.5" y="-56" font-family="Times New Roman,serif" font-size="10.00">related:</text>
<text text-anchor="start" x="1481.5" y="-56" font-family="Times New Roman,serif" font-size="10.00">53</text>
</g>
<!-- &#45;attrs6&#45;&gt;http://example.org/s6 -->
<g id="edge7" class="edge"><title>&#45;attrs6&#45;&gt;http://example.org/s6</title>
<path fill="none" stroke="gray" stroke-dasharray="5,2" d="M1438.95,-72C1426.72,-72 1413.16,-72 1401.73,-72"/>
</g>
<!-- http://example.org/s5&#45;&gt;http://example.org/backward5 -->
<g id="edge18" class="edge"><title>http://example.org/s5&#45;&gt;http://example.org/backward5</title>
<path fill="none" stroke="black" d="M1149.95,-68.0723C1138.77,-62.263 1124.57,-54.8931 1111.1,-47.899"/>
<polygon fill="black" stroke="black" points="1112.43,-44.6428 1101.94,-43.1408 1109.2,-50.8553 1112.43,-44.6428"/>
<text text-anchor="middle" x="1137.31" y="-74.2451" font-family="Times New Roman,serif" font-size="8.00">gen</text>
</g>
<!-- http://example.org/s5&#45;&gt;&#45;attrs1 -->
<!-- http://example.org/s5&#45;&gt;http://example.org/s4 -->
<g id="edge19" class="edge"><title>http://example.org/s5&#45;&gt;http://example.org/s4</title>
<path fill="none" stroke="black" d="M1154.29,-92.6863C1141.63,-102.133 1123.32,-113.881 1105,-119 1071.61,-128.328 1060.79,-126.765 1027,-119 1013.18,-115.823 998.901,-109.444 987.021,-103.135"/>
<polygon fill="black" stroke="black" points="988.503,-99.9541 978.062,-98.1523 985.1,-106.072 988.503,-99.9541"/>
<text text-anchor="middle" x="1155.9" y="-105.7" font-family="Times New Roman,serif" font-size="8.00">der</text>
</g>
<!-- &#45;attrs7&#45;&gt;http://example.org/s5 -->
<g id="edge8" class="edge"><title>&#45;attrs7&#45;&gt;http://example.org/s5</title>
<path fill="none" stroke="gray" stroke-dasharray="5,2" d="M1238.91,-72.5503C1225.4,-72.016 1210.21,-72.1946 1197.82,-73.0862"/>
</g>
<!-- &#45;attrs7&#45;&gt;http://example.org/s5 -->
<!-- http://example.org/s4&#45;&gt;http://example.org/forward4 -->
<g id="edge21" class="edge"><title>http://example.org/s4&#45;&gt;http://example.org/forward4</title>
<path fill="none" stroke="black" d="M936.258,-75.0723C924.946,-69.1128 910.516,-61.5108 896.937,-54.3572"/>
<polygon fill="black" stroke="black" points="898.2,-51.0665 887.721,-49.5019 894.937,-57.2596 898.2,-51.0665"/>
<text text-anchor="middle" x="923.567" y="-81.1695" font-family="Times New Roman,serif" font-size="8.00">gen</text>
</g>
<!-- http://example.org/s4&#45;&gt;&#45;attrs2 -->
<!-- http://example.org/s4&#45;&gt;http://example.org/s3 -->
<g id="edge22" class="edge"><title>http://example.org/s4&#45;&gt;http://example.org/s3</title>
<path fill="none" stroke="black" d="M939.995,-99.4925C926.901,-108.976 907.898,-120.854 889,-126 858.553,-134.291 848.754,-133.068 818,-126 804.175,-122.823 789.901,-116.444 778.021,-110.135"/>
<polygon fill="black" stroke="black" points="779.503,-106.954 769.062,-105.152 776.1,-113.072 779.503,-106.954"/>
<text text-anchor="middle" x="941.393" y="-112.527" font-family="Times New Roman,serif" font-size="8.00">der</text>
</g>
<!-- &#45;attrs8&#45;&gt;http://example.org/s4 -->
<g id="edge9" class="edge"><title>&#45;attrs8&#45;&gt;http://example.org/s4</title>
<path fill="none" stroke="gray" stroke-dasharray="5,2" d="M1030.29,-79.6208C1015.08,-78.98 997.568,-79.1697 983.71,-80.19"/>
</g>
<!-- &#45;attrs8&#45;&gt;http://example.org/s4 -->
<!-- http://example.org/s3&#45;&gt;http://example.org/backward3 -->
<g id="edge24" class="edge"><title>http://example.org/s3&#45;&gt;http://example.org/backward3</title>
<path fill="none" stroke="black" d="M727.058,-82.3313C715.476,-76.4313 700.623,-68.8647 686.58,-61.7105"/>
<polygon fill="black" stroke="black" points="688.01,-58.511 677.511,-57.0903 684.832,-64.7483 688.01,-58.511"/>
<text text-anchor="middle" x="714.478" y="-88.6018" font-family="Times New Roman,serif" font-size="8.00">gen</text>
</g>
<!-- http://example.org/s3&#45;&gt;&#45;attrs3 -->
<!-- http://example.org/s3&#45;&gt;http://example.org/s2 -->
<g id="edge25" class="edge"><title>http://example.org/s3&#45;&gt;http://example.org/s2</title>
<path fill="none" stroke="black" d="M730.995,-106.492C717.901,-115.976 698.898,-127.854 680,-133 646.551,-142.108 635.786,-140.765 602,-133 588.175,-129.823 573.901,-123.444 562.021,-117.135"/>
<polygon fill="black" stroke="black" points="563.503,-113.954 553.062,-112.152 560.1,-120.072 563.503,-113.954"/>
<text text-anchor="middle" x="732.393" y="-119.527" font-family="Times New Roman,serif" font-size="8.00">der</text>
</g>
<!-- &#45;attrs9&#45;&gt;http://example.org/s3 -->
<g id="edge10" class="edge"><title>&#45;attrs9&#45;&gt;http://example.org/s3</title>
<path fill="none" stroke="gray" stroke-dasharray="5,2" d="M817.798,-86.573C803.627,-86.0013 787.565,-86.1885 774.633,-87.1348"/>
</g>
<!-- &#45;attrs9&#45;&gt;http://example.org/s3 -->
<!-- http://example.org/s2&#45;&gt;http://example.org/forward2 -->
<g id="edge27" class="edge"><title>http://example.org/s2&#45;&gt;http://example.org/forward2</title>
<path fill="none" stroke="black" d="M511.073,-88.8112C500.087,-82.9377 486.219,-75.5231 473.124,-68.5217"/>
<polygon fill="black" stroke="black" points="474.695,-65.393 464.226,-63.7646 471.395,-71.5661 474.695,-65.393"/>
<text text-anchor="middle" x="498.334" y="-94.8308" font-family="Times New Roman,serif" font-size="8.00">gen</text>
</g>
<!-- http://example.org/s2&#45;&gt;&#45;attrs4 -->
<!-- http://example.org/s2&#45;&gt;http://example.org/s1 -->
<g id="edge28" class="edge"><title>http://example.org/s2&#45;&gt;http://example.org/s1</title>
<path fill="none" stroke="black" d="M515.324,-113.622C502.25,-123.373 483.125,-135.68 464,-141 434.883,-149.099 425.414,-147.944 396,-141 382.012,-137.698 367.621,-131.053 355.7,-124.507"/>
<polygon fill="black" stroke="black" points="357.138,-121.297 346.724,-119.344 353.648,-127.365 357.138,-121.297"/>
<text text-anchor="middle" x="516.928" y="-126.636" font-family="Times New Roman,serif" font-size="8.00">der</text>
</g>
<!-- &#45;attrs10&#45;&gt;http://example.org/s2 -->
<g id="edge11" class="edge"><title>&#45;attrs10&#45;&gt;http://example.org/s2</title>
<path fill="none" stroke="gray" stroke-dasharray="5,2" d="M607.909,-93.7404C592.066,-92.9584 573.254,-93.1116 558.575,-94.2"/>
</g>
<!-- &#45;attrs10&#45;&gt;http://example.org/s2 -->
<!-- http://example.org/s1&#45;&gt;http://example.org/backward1 -->
<g id="edge30" class="edge"><title>http://example.org/s1&#45;&gt;http://example.org/backward1</title>
<path fill="none" stroke="black" d="M304.037,-97.4688C293.399,-92.8524 280.186,-87.1183 267.41,-81.5744"/>
<polygon fill="black" stroke="black" points="268.795,-78.3601 258.229,-77.5898 266.009,-84.7815 268.795,-78.3601"/>
<text text-anchor="middle" x="291.985" y="-104.5" font-family="Times New Roman,serif" font-size="8.00">gen</text>
</g>
<!-- http://example.org/s1&#45;&gt;&#45;attrs5 -->
<!-- http://example.org/s1&#45;&gt;http://example.org/s0 -->
<g id="edge31" class="edge"><title>http://example.org/s1&#45;&gt;http://example.org/s0</title>
<path fill="none" stroke="black" d="M299.657,-107.253C262.851,-107.607 195.897,-108.251 154.362,-108.65"/>
<polygon fill="black" stroke="black" points="154.095,-105.153 144.129,-108.749 154.163,-112.152 154.095,-105.153"/>
<text text-anchor="middle" x="292.282" y="-118.415" font-family="Times New Roman,serif" font-size="8.00">der</text>
</g>
<!-- &#45;attrs11&#45;&gt;http://example.org/s1 -->
<g id="edge12" class="edge"><title>&#45;attrs11&#45;&gt;http://example.org/s1</title>
<path fill="none" stroke="gray" stroke-dasharray="5,2" d="M396.765,-100.659C382.448,-99.9904 365.867,-100.142 352.574,-101.113"/>
</g>
<!-- &#45;attrs11&#45;&gt;http://example.org/s1 -->
<!-- http://example.org/s0&#45;&gt;http://example.org/start -->
<g id="edge32" class="edge"><title>http://example.org/s0&#45;&gt;http://example.org/start</title>
<path fill="none" stroke="black" d="M91.4871,-115.685C82.9718,-118.008 73.2363,-120.663 63.9893,-123.185"/>
<polygon fill="black" stroke="black" points="62.9546,-119.839 54.2279,-125.847 64.7965,-126.592 62.9546,-119.839"/>
<text text-anchor="middle" x="87.6694" y="-128.291" font-family="Times New Roman,serif" font-size="8.00">gen</text>
</g>
<!-- &#45;attrs12&#45;&gt;http://example.org/start -->
<!-- &#45;attrs12&#45;&gt;http://example.org/s0 -->
<g id="edge13" class="edge"><title>&#45;attrs12&#45;&gt;http://example.org/s0</title>
<path fill="none" stroke="gray" stroke-dasharray="5,2" d="M186.359,-143.863C170.91,-135.984 152.745,-126.72 139.024,-119.722"/>
</g>
</g>
</svg>
